Coordinates
version=1
nRows=12
nColumns=34
inDegrees=yes

Units are S.I. units (second, meters, Newtons, ...)
If the header above contains a line with 'inDegrees', this indicates whether rotational values are in degrees (yes) or radians (no).

endheader
time	pelvis_tilt	pelvis_list	pelvis_rotation	pelvis_tx	pelvis_ty	pelvis_tz	hip_flexion_r	hip_adduction_r	hip_rotation_r	knee_angle_r	ankle_angle_r	subtalar_angle_r	mtp_angle_r	hip_flexion_l	hip_adduction_l	hip_rotation_l	knee_angle_l	ankle_angle_l	subtalar_angle_l	mtp_angle_l	lumbar_extension	lumbar_bending	lumbar_rotation	arm_flex_r	arm_add_r	arm_rot_r	elbow_flex_r	pro_sup_r	arm_flex_l	arm_add_l	arm_rot_l	elbow_flex_l	pro_sup_l
      2.48333330	     -1.43684234	      1.51033541	    -44.33357237	      2.37508251	      0.98527787	      7.05204423	     42.62207628	     -0.49228860	      0.74735661	     33.93474252	      3.87041950	      5.75008869	      0.00000000	     28.41200064	     19.95513230	     -5.56482817	     12.07680461	     -4.52609701	     -9.09286660	      0.00000000	     -4.04498517	    -15.48063805	     66.96880406	     24.24544066	      9.89093338	     29.31160653	     94.79836096	    119.74817918	     -2.88202115	     28.07440717	     32.33406499	     88.56259116	    109.75491732
      2.50000000	     -1.69178447	      1.95151493	    -43.62415763	      2.37470401	      0.98638033	      7.05561366	     42.42645749	     -0.75596859	      0.47308852	     32.60733458	      3.78099365	      5.82122123	      0.00000000	     29.52875703	     20.04029508	     -5.94127511	     13.55832992	     -4.85946954	     -9.45630937	      0.00000000	     -3.91149739	    -16.45240285	     66.26359575	     24.18357281	      8.53936741	     31.08513588	     95.22515400	    119.74817918	     -1.18419440	     28.14130803	     32.27318046	     87.78954325	    109.97506634
      2.51666670	     -2.49445533	      2.32088041	    -42.74150414	      2.37609330	      0.98577530	      7.05712682	     42.59632685	     -0.77751834	     -0.00707870	     31.38290497	      3.38445670	      5.01845615	      0.00000000	     31.28373068	     19.95152269	     -6.18771710	     15.60974536	     -4.80924430	    -10.11895522	      0.00000000	     -3.33923640	    -16.49095933	     65.49015731	     24.12272013	      6.57170998	     33.51868927	     95.37598403	    119.74817918	     -0.85780133	     28.24361930	     32.70502680	     87.28030913	    110.42482485
      2.53333330	     -3.18893527	      2.25227179	    -41.93473658	      2.37703516	      0.98567339	      7.05860493	     42.42548309	     -0.26322485	      0.15587766	     30.22969132	      2.50159191	      3.16330073	      0.00000000	     32.58194043	     19.66429087	     -5.88495089	     17.60744278	     -4.77459709	    -11.03753891	      0.00000000	     -3.05300154	    -16.25717635	     65.47059964	     23.89295633	      4.40427994	     35.08160238	     95.39818878	    119.74817918	     -0.77841253	     28.70246574	     33.20637819	     87.19895856	    110.89857024
      2.55000000	     -3.29847135	      1.39006551	    -41.36416615	      2.37894778	      0.98669899	      7.05997218	     41.49649202	      0.56974058	      0.60358838	     29.62605503	      1.44044304	      0.69180096	      0.00000000	     32.62170899	     19.31032641	     -5.12487547	     19.29267454	     -4.83326126	    -12.53257213	      0.00000000	     -3.58728720	    -15.64443460	     65.41540355	     23.23804018	      3.04659723	     36.34926042	     94.81776351	    119.73199378	     -0.99739166	     29.32697348	     34.10635588	     87.22994468	    111.30911426
      2.56666670	     -3.25618215	      0.09024742	    -40.98324963	      2.38079265	      0.98877749	      7.06159699	     40.34281426	      1.63712122	      0.57585255	     29.57039770	      0.98964520	     -1.07593949	      0.00000000	     32.22531064	     18.66895901	     -4.62109373	     20.97077698	     -5.03587633	    -14.31922022	      0.00000000	     -4.48295264	    -14.65834157	     65.76813651	     22.53301434	      1.82433239	     37.17204918	     93.99672000	    119.71306855	     -1.40601744	     29.70350170	     35.01154092	     87.20831334	    111.56084665
      2.58333330	     -3.21800152	     -1.37200986	    -40.81445461	      2.38147635	      0.99135276	      7.06380760	     39.31572244	      3.01103871	      0.84363222	     29.78690278	      0.94860930	     -1.97324274	      0.00000000	     31.94860160	     17.74805264	     -4.29693372	     22.89624579	     -5.70247022	    -16.60851388	      0.00000000	     -5.60063862	    -13.61985394	     66.33698382	     21.83917152	      0.83939279	     37.36343095	     93.19861827	    119.63785021	     -1.88400239	     30.24066978	     35.62871168	     87.48992402	    111.63870324
      2.60000000	     -2.84033512	     -2.92756811	    -41.01602100	      2.38241821	      0.99465399	      7.06599981	     37.97711376	      4.36038425	      1.20524836	     29.89292399	      0.32102596	     -2.93007573	      0.00000000	     31.11499553	     16.84939698	     -4.07314352	     24.32898148	     -6.33290168	    -18.91166118	      0.00000000	     -6.69471033	    -12.83075655	     65.91619886	     20.90129733	      0.41894648	     37.27801812	     92.60053116	    119.52438109	     -2.22607483	     30.74100274	     35.69299119	     88.39947055	    111.62579588
      2.61666670	     -2.51221247	     -4.19224225	    -40.91149807	      2.38321556	      0.99810107	      7.06879382	     36.85243899	      5.57324028	      1.88804017	     30.21767677	     -0.86043388	     -4.11824687	      0.00000000	     30.28350609	     16.12148080	     -4.01852480	     25.34445583	     -7.08995378	    -20.78197246	      0.00000000	     -7.65911851	    -12.26240589	     65.23974648	     20.66682752	     -0.40211919	     37.67451701	     92.52534422	    119.39579255	     -1.74646799	     30.95980338	     35.01775024	     88.65338944	    111.49196029
      2.63333330	     -2.24469385	     -4.94001952	    -40.83427169	      2.38325875	      1.00056781	      7.07261663	     36.30354927	      6.72639733	      3.71350358	     30.81943022	     -1.93743109	     -5.16681025	      0.00000000	     29.68169828	     15.58852835	     -4.19828766	     25.98420854	     -7.47104771	    -22.03757564	      0.00000000	     -8.11652102	    -12.20616830	     64.26353235	     21.00645543	     -0.75413766	     38.67815234	     92.83093971	    119.29974778	     -0.89120025	     31.07368317	     34.11687442	     88.35696268	    111.31156011
      2.65000000	     -2.13187135	     -5.63190853	    -41.19051040	      2.38139302	      1.00310707	      7.07698216	     35.15813062	      8.18921299	      5.70558308	     29.73053876	     -4.34001960	     -6.71640351	      0.00000000	     29.25996425	     14.89479256	     -4.12463210	     26.47401457	     -8.25793551	    -24.06285710	      0.00000000	     -8.49268696	    -12.27158867	     64.00761912	     21.25776623	     -0.98913783	     39.35637683	     92.86805182	    119.09810715	      0.00476912	     31.22200587	     33.30005352	     88.18224703	    111.12322288
      2.66666670	     -2.39312261	     -6.49349928	    -41.56833984	      2.37709949	      1.00637979	      7.08056423	     33.36605352	      9.52877738	      6.01087116	     26.77749826	     -6.66593134	     -6.81629858	      0.00000000	     29.32872704	     13.50706994	     -5.12006810	     27.14828421	     -9.85999978	    -25.50442757	      0.00000000	     -9.10263979	    -12.20090087	     64.07134539	     21.75089448	     -0.87581084	     39.21190751	     92.53584558	    118.78458034	      1.02448252	     30.81716226	     32.70457585	     87.99854201	    110.96130814
